<svg xmlns="http://www.w3.org/2000/svg" version="1.1" xmlns:xlink="http://www.w3.org/1999/xlink" xmlns:svgjs="http://svgjs.com/svgjs" width="1440" height="5600" preserveAspectRatio="none" viewBox="0 0 1440 5600"><g mask="url(&quot;#SvgjsMask3726&quot;)" fill="none"><rect width="1440" height="5600" x="0" y="0" fill="url(#SvgjsLinearGradient3727)"></rect><use xlink:href="#SvgjsSymbol3734" x="0" y="0"></use><use xlink:href="#SvgjsSymbol3734" x="0" y="720"></use><use xlink:href="#SvgjsSymbol3734" x="0" y="1440"></use><use xlink:href="#SvgjsSymbol3734" x="0" y="2160"></use><use xlink:href="#SvgjsSymbol3734" x="0" y="2880"></use><use xlink:href="#SvgjsSymbol3734" x="0" y="3600"></use><use xlink:href="#SvgjsSymbol3734" x="0" y="4320"></use><use xlink:href="#SvgjsSymbol3734" x="0" y="5040"></use><use xlink:href="#SvgjsSymbol3734" x="720" y="0"></use><use xlink:href="#SvgjsSymbol3734" x="720" y="720"></use><use xlink:href="#SvgjsSymbol3734" x="720" y="1440"></use><use xlink:href="#SvgjsSymbol3734" x="720" y="2160"></use><use xlink:href="#SvgjsSymbol3734" x="720" y="2880"></use><use xlink:href="#SvgjsSymbol3734" x="720" y="3600"></use><use xlink:href="#SvgjsSymbol3734" x="720" y="4320"></use><use xlink:href="#SvgjsSymbol3734" x="720" y="5040"></use></g><defs><mask id="SvgjsMask3726"><rect width="1440" height="5600" fill="#ffffff"></rect></mask><linearGradient x1="-72.22%" y1="18.57%" x2="172.22%" y2="81.43%" gradientUnits="userSpaceOnUse" id="SvgjsLinearGradient3727"><stop stop-color="#0e2a47" offset="0"></stop><stop stop-color="rgba(212, 213, 214, 1)" offset="1"></stop></linearGradient><path d="M-1 0 a1 1 0 1 0 2 0 a1 1 0 1 0 -2 0z" id="SvgjsPath3728"></path><path d="M-3 0 a3 3 0 1 0 6 0 a3 3 0 1 0 -6 0z" id="SvgjsPath3732"></path><path d="M-5 0 a5 5 0 1 0 10 0 a5 5 0 1 0 -10 0z" id="SvgjsPath3730"></path><path d="M2 -2 L-2 2z" id="SvgjsPath3731"></path><path d="M6 -6 L-6 6z" id="SvgjsPath3729"></path><path d="M30 -30 L-30 30z" id="SvgjsPath3733"></path></defs><symbol id="SvgjsSymbol3734"><use xlink:href="#SvgjsPath3728" x="30" y="30" stroke="#1c538e"></use><use xlink:href="#SvgjsPath3729" x="30" y="90" stroke="#1c538e"></use><use xlink:href="#SvgjsPath3730" x="30" y="150" stroke="#1c538e"></use><use xlink:href="#SvgjsPath3731" x="30" y="210" stroke="#1c538e"></use><use xlink:href="#SvgjsPath3732" x="30" y="270" stroke="#1c538e"></use><use xlink:href="#SvgjsPath3728" x="30" y="330" stroke="#1c538e"></use><use xlink:href="#SvgjsPath3729" x="30" y="390" stroke="#1c538e"></use><use xlink:href="#SvgjsPath3730" x="30" y="450" stroke="#1c538e"></use><use xlink:href="#SvgjsPath3729" x="30" y="510" stroke="#1c538e"></use><use xlink:href="#SvgjsPath3732" x="30" y="570" stroke="#1c538e"></use><use xlink:href="#SvgjsPath3731" x="30" y="630" stroke="#1c538e"></use><use xlink:href="#SvgjsPath3728" x="30" y="690" stroke="#1c538e"></use><use xlink:href="#SvgjsPath3731" x="90" y="30" stroke="#1c538e"></use><use xlink:href="#SvgjsPath3731" x="90" y="90" stroke="#1c538e"></use><use xlink:href="#SvgjsPath3728" x="90" y="150" stroke="#1c538e"></use><use xlink:href="#SvgjsPath3733" x="90" y="210" stroke="#1c538e" stroke-width="3"></use><use xlink:href="#SvgjsPath3729" x="90" y="270" stroke="#1c538e"></use><use xlink:href="#SvgjsPath3730" x="90" y="330" stroke="#1c538e"></use><use xlink:href="#SvgjsPath3729" x="90" y="390" stroke="#1c538e"></use><use xlink:href="#SvgjsPath3728" x="90" y="450" stroke="#1c538e"></use><use xlink:href="#SvgjsPath3730" x="90" y="510" stroke="#1c538e"></use><use xlink:href="#SvgjsPath3731" x="90" y="570" stroke="#1c538e"></use><use xlink:href="#SvgjsPath3732" x="90" y="630" stroke="#1c538e"></use><use xlink:href="#SvgjsPath3729" x="90" y="690" stroke="#1c538e"></use><use xlink:href="#SvgjsPath3729" x="150" y="30" stroke="#1c538e"></use><use xlink:href="#SvgjsPath3728" x="150" y="90" stroke="#1c538e"></use><use xlink:href="#SvgjsPath3729" x="150" y="150" stroke="#1c538e"></use><use xlink:href="#SvgjsPath3729" x="150" y="210" stroke="#1c538e"></use><use xlink:href="#SvgjsPath3728" x="150" y="270" stroke="#1c538e"></use><use xlink:href="#SvgjsPath3730" x="150" y="330" stroke="#1c538e"></use><use xlink:href="#SvgjsPath3731" x="150" y="390" stroke="#1c538e"></use><use xlink:href="#SvgjsPath3730" x="150" y="450" stroke="#1c538e"></use><use xlink:href="#SvgjsPath3729" x="150" y="510" stroke="#1c538e"></use><use xlink:href="#SvgjsPath3732" x="150" y="570" stroke="#1c538e"></use><use xlink:href="#SvgjsPath3729" x="150" y="630" stroke="#1c538e"></use><use xlink:href="#SvgjsPath3729" x="150" y="690" stroke="#1c538e"></use><use xlink:href="#SvgjsPath3729" x="210" y="30" stroke="#1c538e"></use><use xlink:href="#SvgjsPath3729" x="210" y="90" stroke="#1c538e"></use><use xlink:href="#SvgjsPath3730" x="210" y="150" stroke="#1c538e"></use><use xlink:href="#SvgjsPath3728" x="210" y="210" stroke="#1c538e"></use><use xlink:href="#SvgjsPath3728" x="210" y="270" stroke="#1c538e"></use><use xlink:href="#SvgjsPath3731" x="210" y="330" stroke="#1c538e"></use><use xlink:href="#SvgjsPath3729" x="210" y="390" stroke="#1c538e"></use><use xlink:href="#SvgjsPath3731" x="210" y="450" stroke="#1c538e"></use><use xlink:href="#SvgjsPath3730" x="210" y="510" stroke="#1c538e"></use><use xlink:href="#SvgjsPath3729" x="210" y="570" stroke="#1c538e"></use><use xlink:href="#SvgjsPath3729" x="210" y="630" stroke="#1c538e"></use><use xlink:href="#SvgjsPath3730" x="210" y="690" stroke="#1c538e"></use><use xlink:href="#SvgjsPath3731" x="270" y="30" stroke="#1c538e"></use><use xlink:href="#SvgjsPath3729" x="270" y="90" stroke="#1c538e"></use><use xlink:href="#SvgjsPath3733" x="270" y="150" stroke="#1c538e" stroke-width="3"></use><use xlink:href="#SvgjsPath3731" x="270" y="210" stroke="#1c538e"></use><use xlink:href="#SvgjsPath3729" x="270" y="270" stroke="#1c538e"></use><use xlink:href="#SvgjsPath3728" x="270" y="330" stroke="#1c538e"></use><use xlink:href="#SvgjsPath3729" x="270" y="390" stroke="#1c538e"></use><use xlink:href="#SvgjsPath3730" x="270" y="450" stroke="#1c538e"></use><use xlink:href="#SvgjsPath3732" x="270" y="510" stroke="#1c538e"></use><use xlink:href="#SvgjsPath3729" x="270" y="570" stroke="#1c538e"></use><use xlink:href="#SvgjsPath3729" x="270" y="630" stroke="#1c538e"></use><use xlink:href="#SvgjsPath3729" x="270" y="690" stroke="#1c538e"></use><use xlink:href="#SvgjsPath3732" x="330" y="30" stroke="#1c538e"></use><use xlink:href="#SvgjsPath3731" x="330" y="90" stroke="#1c538e"></use><use xlink:href="#SvgjsPath3728" x="330" y="150" stroke="#1c538e"></use><use xlink:href="#SvgjsPath3729" x="330" y="210" stroke="#1c538e"></use><use xlink:href="#SvgjsPath3732" x="330" y="270" stroke="#1c538e"></use><use xlink:href="#SvgjsPath3732" x="330" y="330" stroke="#1c538e"></use><use xlink:href="#SvgjsPath3728" x="330" y="390" stroke="#1c538e"></use><use xlink:href="#SvgjsPath3731" x="330" y="450" stroke="#1c538e"></use><use xlink:href="#SvgjsPath3730" x="330" y="510" stroke="#1c538e"></use><use xlink:href="#SvgjsPath3730" x="330" y="570" stroke="#1c538e"></use><use xlink:href="#SvgjsPath3729" x="330" y="630" stroke="#1c538e"></use><use xlink:href="#SvgjsPath3731" x="330" y="690" stroke="#1c538e"></use><use xlink:href="#SvgjsPath3730" x="390" y="30" stroke="#1c538e"></use><use xlink:href="#SvgjsPath3730" x="390" y="90" stroke="#1c538e"></use><use xlink:href="#SvgjsPath3729" x="390" y="150" stroke="#1c538e"></use><use xlink:href="#SvgjsPath3729" x="390" y="210" stroke="#1c538e"></use><use xlink:href="#SvgjsPath3729" x="390" y="270" stroke="#1c538e"></use><use xlink:href="#SvgjsPath3730" x="390" y="330" stroke="#1c538e"></use><use xlink:href="#SvgjsPath3732" x="390" y="390" stroke="#1c538e"></use><use xlink:href="#SvgjsPath3728" x="390" y="450" stroke="#1c538e"></use><use xlink:href="#SvgjsPath3729" x="390" y="510" stroke="#1c538e"></use><use xlink:href="#SvgjsPath3731" x="390" y="570" stroke="#1c538e"></use><use xlink:href="#SvgjsPath3730" x="390" y="630" stroke="#1c538e"></use><use xlink:href="#SvgjsPath3729" x="390" y="690" stroke="#1c538e"></use><use xlink:href="#SvgjsPath3729" x="450" y="30" stroke="#1c538e"></use><use xlink:href="#SvgjsPath3730" x="450" y="90" stroke="#1c538e"></use><use xlink:href="#SvgjsPath3729" x="450" y="150" stroke="#1c538e"></use><use xlink:href="#SvgjsPath3730" x="450" y="210" stroke="#1c538e"></use><use xlink:href="#SvgjsPath3731" x="450" y="270" stroke="#1c538e"></use><use xlink:href="#SvgjsPath3729" x="450" y="330" stroke="#1c538e"></use><use xlink:href="#SvgjsPath3730" x="450" y="390" stroke="#1c538e"></use><use xlink:href="#SvgjsPath3729" x="450" y="450" stroke="#1c538e"></use><use xlink:href="#SvgjsPath3731" x="450" y="510" stroke="#1c538e"></use><use xlink:href="#SvgjsPath3729" x="450" y="570" stroke="#1c538e"></use><use xlink:href="#SvgjsPath3728" x="450" y="630" stroke="#1c538e"></use><use xlink:href="#SvgjsPath3729" x="450" y="690" stroke="#1c538e"></use><use xlink:href="#SvgjsPath3730" x="510" y="30" stroke="#1c538e"></use><use xlink:href="#SvgjsPath3732" x="510" y="90" stroke="#1c538e"></use><use xlink:href="#SvgjsPath3730" x="510" y="150" stroke="#1c538e"></use><use xlink:href="#SvgjsPath3730" x="510" y="210" stroke="#1c538e"></use><use xlink:href="#SvgjsPath3733" x="510" y="270" stroke="#1c538e" stroke-width="3"></use><use xlink:href="#SvgjsPath3731" x="510" y="330" stroke="#1c538e"></use><use xlink:href="#SvgjsPath3729" x="510" y="390" stroke="#1c538e"></use><use xlink:href="#SvgjsPath3729" x="510" y="450" stroke="#1c538e"></use><use xlink:href="#SvgjsPath3732" x="510" y="510" stroke="#1c538e"></use><use xlink:href="#SvgjsPath3732" x="510" y="570" stroke="#1c538e"></use><use xlink:href="#SvgjsPath3732" x="510" y="630" stroke="#1c538e"></use><use xlink:href="#SvgjsPath3729" x="510" y="690" stroke="#1c538e"></use><use xlink:href="#SvgjsPath3731" x="570" y="30" stroke="#1c538e"></use><use xlink:href="#SvgjsPath3728" x="570" y="90" stroke="#1c538e"></use><use xlink:href="#SvgjsPath3730" x="570" y="150" stroke="#1c538e"></use><use xlink:href="#SvgjsPath3730" x="570" y="210" stroke="#1c538e"></use><use xlink:href="#SvgjsPath3729" x="570" y="270" stroke="#1c538e"></use><use xlink:href="#SvgjsPath3732" x="570" y="330" stroke="#1c538e"></use><use xlink:href="#SvgjsPath3730" x="570" y="390" stroke="#1c538e"></use><use xlink:href="#SvgjsPath3728" x="570" y="450" stroke="#1c538e"></use><use xlink:href="#SvgjsPath3730" x="570" y="510" stroke="#1c538e"></use><use xlink:href="#SvgjsPath3729" x="570" y="570" stroke="#1c538e"></use><use xlink:href="#SvgjsPath3729" x="570" y="630" stroke="#1c538e"></use><use xlink:href="#SvgjsPath3729" x="570" y="690" stroke="#1c538e"></use><use xlink:href="#SvgjsPath3730" x="630" y="30" stroke="#1c538e"></use><use xlink:href="#SvgjsPath3728" x="630" y="90" stroke="#1c538e"></use><use xlink:href="#SvgjsPath3731" x="630" y="150" stroke="#1c538e"></use><use xlink:href="#SvgjsPath3729" x="630" y="210" stroke="#1c538e"></use><use xlink:href="#SvgjsPath3729" x="630" y="270" stroke="#1c538e"></use><use xlink:href="#SvgjsPath3732" x="630" y="330" stroke="#1c538e"></use><use xlink:href="#SvgjsPath3729" x="630" y="390" stroke="#1c538e"></use><use xlink:href="#SvgjsPath3729" x="630" y="450" stroke="#1c538e"></use><use xlink:href="#SvgjsPath3729" x="630" y="510" stroke="#1c538e"></use><use xlink:href="#SvgjsPath3729" x="630" y="570" stroke="#1c538e"></use><use xlink:href="#SvgjsPath3728" x="630" y="630" stroke="#1c538e"></use><use xlink:href="#SvgjsPath3729" x="630" y="690" stroke="#1c538e"></use><use xlink:href="#SvgjsPath3731" x="690" y="30" stroke="#1c538e"></use><use xlink:href="#SvgjsPath3731" x="690" y="90" stroke="#1c538e"></use><use xlink:href="#SvgjsPath3731" x="690" y="150" stroke="#1c538e"></use><use xlink:href="#SvgjsPath3731" x="690" y="210" stroke="#1c538e"></use><use xlink:href="#SvgjsPath3733" x="690" y="270" stroke="#1c538e" stroke-width="3"></use><use xlink:href="#SvgjsPath3729" x="690" y="330" stroke="#1c538e"></use><use xlink:href="#SvgjsPath3729" x="690" y="390" stroke="#1c538e"></use><use xlink:href="#SvgjsPath3730" x="690" y="450" stroke="#1c538e"></use><use xlink:href="#SvgjsPath3732" x="690" y="510" stroke="#1c538e"></use><use xlink:href="#SvgjsPath3731" x="690" y="570" stroke="#1c538e"></use><use xlink:href="#SvgjsPath3730" x="690" y="630" stroke="#1c538e"></use><use xlink:href="#SvgjsPath3729" x="690" y="690" stroke="#1c538e"></use></symbol></svg>